<?xml version="1.0" encoding="utf-8"?>
<!DOCTYPE svg PUBLIC "-//W3C//DTD SVG 20010904//EN" "http://www.w3.org/TR/2001/REC-SVG-20010904/DTD/svg10.dtd">
<svg version="1.0" xmlns="http://www.w3.org/2000/svg" width="502pt" height="502pt" viewBox="0 0 502 502" style="" preserveAspectRatio="xMidYMid meet">
<g fill="#4F4F4FFF" stroke="#4F4F4FFF">
<path d="M 114.000 259.000 L 114.000 271.000 122.216 271.000 L 130.432 271.000 137.503 278.250 C 159.997 301.314 175.940 332.607 183.429 368.393 C 186.623 383.657 187.106 387.230 188.385 405.000 L 189.500 420.500 200.104 420.782 L 210.708 421.065 211.354 414.886 C 211.709 411.487 212.000 405.620 212.000 401.847 C 212.000 391.002 215.774 368.356 219.766 355.250 C 222.200 347.258 222.422 347.532 226.436 363.500 C 229.480 375.607 232.318 397.415 233.270 416.000 L 233.500 420.500 251.107 420.500 L 268.714 420.500 269.325 408.500 C 270.159 392.133 272.512 375.830 276.108 361.500 C 278.955 350.156 280.263 346.929 281.508 348.174 C 282.248 348.914 285.765 361.760 287.594 370.403 C 289.979 381.676 291.130 391.464 291.840 406.500 L 292.500 420.500 302.500 420.500 L 312.500 420.500 313.251 407.500 C 314.062 393.448 317.050 373.093 320.101 360.835 C 327.841 329.733 343.711 299.924 363.500 279.319 L 371.500 270.989 379.750 270.994 L 388.000 271.000 388.000 259.000 L 388.000 247.000 251.000 247.000 L 114.000 247.000 114.000 259.000 M 255.581 295.289 C 257.275 297.605 261.064 303.499 263.999 308.386 C 269.084 316.851 269.275 317.419 268.044 320.386 C 263.431 331.507 255.999 355.622 254.024 365.875 C 252.740 372.544 251.329 378.000 250.890 378.000 C 250.450 378.000 249.802 376.313 249.448 374.250 C 247.084 360.441 244.318 349.644 239.908 337.000 C 237.127 329.025 234.615 321.530 234.327 320.343 C 233.983 318.928 235.245 315.718 237.999 311.001 C 243.123 302.228 250.911 290.986 251.827 291.039 C 252.197 291.060 253.886 292.973 255.581 295.289 M 182.365 279.247 C 190.796 288.094 198.962 299.021 205.988 310.858 C 210.968 319.247 211.116 317.018 204.306 336.249 C 202.213 342.161 200.245 346.998 199.933 346.999 C 199.621 346.999 198.561 344.413 197.578 341.250 C 191.025 320.168 179.462 297.789 165.831 279.809 C 162.624 275.579 160.000 271.867 160.000 271.559 C 160.000 271.252 163.263 270.999 167.250 270.997 L 174.500 270.994 182.365 279.247 M 342.000 271.576 C 342.000 271.893 340.054 274.705 337.676 277.826 C 329.827 288.124 324.444 296.376 319.294 306.000 C 314.082 315.740 305.000 337.486 305.000 340.225 C 305.000 341.066 304.325 342.315 303.500 343.000 C 302.675 343.685 302.000 344.047 302.000 343.805 C 302.000 342.707 294.970 323.843 293.505 321.010 C 291.881 317.869 291.904 317.777 296.123 310.671 C 303.117 298.887 311.419 287.783 319.696 279.140 L 327.500 270.992 334.750 270.996 C 338.738 270.998 342.000 271.259 342.000 271.576 M 235.171 272.655 C 236.177 273.565 237.000 274.684 237.000 275.141 C 237.000 275.855 228.271 288.421 223.552 294.500 L 222.000 296.500 220.467 294.500 C 215.089 287.485 204.000 272.043 204.000 271.569 C 204.000 271.256 210.602 271.000 218.671 271.000 C 230.920 271.000 233.645 271.273 235.171 272.655 M 298.000 271.569 C 298.000 271.882 294.738 276.553 290.750 281.949 C 286.763 287.345 282.941 292.601 282.259 293.630 C 281.068 295.423 280.946 295.402 279.308 293.131 C 278.368 291.828 274.909 287.150 271.622 282.734 L 265.645 274.706 267.933 272.853 C 269.916 271.248 272.079 271.000 284.111 271.000 C 291.750 271.000 298.000 271.256 298.000 271.569 "/></g>
<g fill="#4F4F4FFF" stroke="#4F4F4FFF">
<path d="M 234.000 82.677 C 181.449 91.177 142.944 126.962 130.309 179.044 C 127.973 188.673 127.858 219.970 130.123 230.000 L 131.590 236.500 145.889 236.500 L 160.188 236.500 162.415 229.476 C 166.341 217.092 173.768 204.969 186.000 190.975 C 192.824 183.168 206.512 171.000 208.469 171.000 C 209.700 171.000 218.000 181.821 218.000 183.426 C 218.000 183.720 216.487 186.332 214.637 189.231 C 207.376 200.606 203.388 210.467 200.447 224.315 C 199.651 228.064 199.000 232.451 199.000 234.065 C 199.000 236.956 199.083 237.000 204.500 237.000 L 210.000 237.000 210.000 232.482 C 210.000 229.997 210.917 224.484 212.037 220.232 C 214.307 211.615 222.860 193.500 224.658 193.500 C 225.295 193.500 229.510 198.450 234.024 204.500 C 238.538 210.550 246.114 220.338 250.860 226.250 L 259.488 237.000 266.331 237.000 L 273.173 237.000 267.928 230.750 C 252.343 212.179 233.000 186.692 233.000 184.727 C 233.000 182.838 241.556 179.132 250.000 177.362 C 265.189 174.179 282.061 176.784 304.500 185.779 C 320.822 192.321 340.292 203.337 348.869 210.881 L 352.239 213.845 350.223 223.672 C 349.114 229.078 347.882 234.302 347.484 235.283 C 346.811 236.942 347.578 237.046 358.591 236.783 L 370.421 236.500 371.754 230.500 C 372.487 227.200 373.342 217.750 373.655 209.500 C 374.530 186.399 371.212 170.365 361.444 150.500 C 344.079 115.182 310.801 90.207 272.121 83.462 C 264.445 82.123 240.474 81.630 234.000 82.677 M 321.903 132.750 C 332.849 143.709 342.128 158.527 346.869 172.619 C 349.352 180.000 352.331 195.695 351.607 197.581 C 351.192 198.663 349.450 197.959 344.281 194.623 C 331.965 186.673 311.948 176.922 298.606 172.372 C 283.754 167.308 279.143 166.539 263.500 166.519 C 247.492 166.499 241.928 167.573 231.783 172.643 C 229.189 173.939 226.644 175.000 226.127 175.000 C 224.866 175.000 218.000 165.364 218.000 163.595 C 218.000 160.578 246.812 143.018 262.500 136.473 C 277.552 130.194 291.357 127.202 305.830 127.084 L 316.160 127.000 321.903 132.750 M 272.007 105.925 C 281.443 108.012 297.150 113.951 297.715 115.644 C 297.934 116.303 295.693 117.003 292.033 117.417 C 271.570 119.732 242.148 132.483 218.758 149.173 C 215.037 151.828 211.657 153.985 211.246 153.968 C 210.836 153.950 209.064 151.840 207.308 149.279 L 204.116 144.623 214.866 134.062 C 224.633 124.466 234.936 112.033 237.912 106.250 C 239.019 104.101 239.617 104.001 251.285 104.022 C 259.491 104.036 266.292 104.661 272.007 105.925 M 199.250 155.931 C 200.763 158.070 202.000 160.135 202.000 160.520 C 202.000 160.905 196.785 166.205 190.410 172.298 C 178.065 184.099 169.662 193.839 163.597 203.380 C 159.164 210.353 154.000 220.781 154.000 222.761 C 154.000 223.534 153.438 223.979 152.752 223.751 C 149.513 222.671 149.290 195.543 152.413 182.379 C 154.038 175.525 154.259 175.188 158.301 173.388 C 165.613 170.132 179.249 162.277 186.500 157.146 C 190.350 154.421 194.175 152.158 195.000 152.117 C 195.825 152.076 197.738 153.792 199.250 155.931 M 223.000 108.948 C 223.000 111.368 200.378 135.046 198.128 134.982 C 197.318 134.959 191.000 125.315 191.000 124.101 C 191.000 122.555 204.018 114.845 212.500 111.367 C 220.991 107.886 223.000 107.423 223.000 108.948 M 186.368 136.499 L 190.019 141.997 183.463 146.749 C 179.858 149.362 175.691 152.186 174.204 153.025 C 172.717 153.864 169.435 155.776 166.912 157.275 C 161.856 160.278 161.000 160.517 161.000 158.925 C 161.000 155.980 179.715 131.000 181.921 131.000 C 182.359 131.000 184.360 133.474 186.368 136.499 "/></g>
</svg>
